<?xml version="1.0" encoding="UTF-8" standalone="no"?><!DOCTYPE svg PUBLIC "-//W3C//DTD SVG 1.1//EN" "http://www.w3.org/Graphics/SVG/1.1/DTD/svg11.dtd"><svg width="100%" height="100%" viewBox="0 0 229 228" version="1.1" xmlns="http://www.w3.org/2000/svg" xmlns:xlink="http://www.w3.org/1999/xlink" xml:space="preserve" xmlns:serif="http://www.serif.com/" style="fill-rule:evenodd;clip-rule:evenodd;stroke-linejoin:round;stroke-miterlimit:2;"><path d="M0,140.782c0,-11.45 2.255,-22.787 6.637,-33.364c4.381,-10.578 10.803,-20.189 18.899,-28.285c8.096,-8.096 17.707,-14.518 28.285,-18.9c10.577,-4.381 21.915,-6.636 33.364,-6.636l-0,87.185l-87.185,-0Z" style="fill:#442781;fill-rule:nonzero;"/><path d="M0,140.782c0,11.449 2.255,22.786 6.637,33.364c4.381,10.578 10.803,20.189 18.899,28.285c8.096,8.096 17.707,14.518 28.285,18.899c10.577,4.382 21.915,6.637 33.364,6.637l-0,-87.185l-87.185,-0Z" style="fill:#442781;fill-rule:nonzero;"/><path d="M174.369,140.782c-0,11.449 -2.253,22.786 -6.635,33.364c-4.381,10.578 -10.803,20.189 -18.9,28.285c-8.096,8.096 -17.707,14.518 -28.285,18.899c-10.577,4.382 -21.915,6.637 -33.364,6.637l-0,-87.185l87.184,-0Z" style="fill:#442781;fill-rule:nonzero;"/><path d="M228.125,65.462c0,36.154 -29.309,65.462 -65.462,65.462l-65.462,0l-0,-65.462c-0,-36.154 29.308,-65.462 65.462,-65.462c36.153,0 65.462,29.308 65.462,65.462Z" style="fill:#ff7917;fill-rule:nonzero;"/></svg>